<svg id="_x33_0" enable-background="new 0 0 64 64" height="512" viewBox="0 0 64 64" width="512" xmlns="http://www.w3.org/2000/svg"><g><g><g><path d="m37 2h-27.59c-.14 0-.28.03-.41.09v.01 6.9h-6.9-.01c-.06.13-.09.27-.09.41v51.59c0 .55.45 1 1 1h34c.55 0 1-.45 1-1v-58c0-.55-.45-1-1-1z" fill="#ffeaa7"/></g><g><path d="m62 36v14c0 1.1-.9 2-2 2h-5v2.59c0 .78-.63 1.41-1.41 1.41-.38 0-.74-.15-1-.41l-3.59-3.59h-11c-1.1 0-2-.9-2-2v-14c0-1.1.9-2 2-2h22c1.11 0 2 .9 2 2z" fill="#e6e9ed"/></g><g><path d="m62 8v14c0 1.1-.9 2-2 2h-11l-3.59 3.59c-.26.26-.62.41-1 .41-.78 0-1.41-.63-1.41-1.41v-2.59h-5c-1.1 0-2-.9-2-2v-14c0-1.1.9-2 2-2h22c1.1 0 2 .9 2 2z" fill="#e6e9ed"/></g><g><path d="m32 20c0 2.94-1.05 5.64-2.81 7.72-.85-1.72-2.16-3.16-3.75-4.15-.2-.12-.4-.24-.6-.35h-.01c-1.45-.78-3.1-1.22-4.83-1.22 2.76 0 5-2.24 5-5s-2.24-5-5-5-5 2.24-5 5 2.24 5 5 5c-1.73 0-3.38.44-4.83 1.22h-.01c-1.86 1-3.4 2.56-4.35 4.5-1.76-2.08-2.81-4.78-2.81-7.72 0-6.63 5.37-12 12-12s12 5.37 12 12z" fill="#e6e9ed"/></g><g><path d="m9 2.1v6.9h-6.9c.04-.11.11-.21.19-.29l6.42-6.42c.08-.08.18-.15.29-.19z" fill="#b4dd7f"/></g><g><path d="m6 36h20v6h-20z" fill="#69d6f4"/></g><g><path d="m29.19 27.72c-2.2 2.62-5.5 4.28-9.19 4.28s-6.99-1.66-9.19-4.28c.95-1.94 2.49-3.5 4.35-4.5h.01l4.83 4.78 4.83-4.78h.01c.2.11.4.23.6.35 1.59.99 2.9 2.43 3.75 4.15z" fill="#ff826e"/></g><g><path d="m24.83 23.22-4.83 4.78-4.83-4.78c1.45-.78 3.1-1.22 4.83-1.22s3.38.44 4.83 1.22z" fill="#f0d0b4"/></g><g><circle cx="20" cy="17" fill="#f0d0b4" r="5"/></g></g><g><path d="m44.414 29c.645 0 1.251-.251 1.707-.707l3.293-3.293h10.586c1.654 0 3-1.346 3-3v-14c0-1.654-1.346-3-3-3h-21v-2c0-1.103-.897-2-2-2h-27.586c-.534 0-1.036.208-1.414.586l-6.414 6.414c-.378.378-.586.88-.586 1.414v51.586c0 1.103.897 2 2 2h34c1.103 0 2-.897 2-2v-8h9.586l3.293 3.293c.456.456 1.062.707 1.707.707 1.331 0 2.414-1.083 2.414-2.414v-1.586h4c1.654 0 3-1.346 3-3v-14c0-1.654-1.345-3-2.998-3h-21.002v-8h3v1.586c0 1.331 1.083 2.414 2.414 2.414zm-36.414-24.586v3.586h-3.586zm-5 56.586v-51h7v-7h27v2.184c-1.161.414-2 1.514-2 2.816v14c0 1.302.839 2.402 2 2.816v8.369c-1.161.414-2 1.514-2 2.816v14c0 1.302.839 2.402 2 2.816v8.183zm58-25v14c0 .551-.449 1-1 1h-6v3.586c0 .338-.469.531-.707.293l-3.879-3.879h-11.414c-.551 0-1-.449-1-1v-14c0-.551.449-1 1-1h22.002c.551 0 .998.449.998 1zm-23-13c-.551 0-1-.449-1-1v-14c0-.551.449-1 1-1h22c.551 0 1 .449 1 1v14c0 .551-.449 1-1 1h-11.414l-3.879 3.879c-.239.238-.707.045-.707-.293v-3.586z"/><path d="m57.673 10.74-1.346-1.48-10.294 9.359-2.326-2.326-1.414 1.414 3.674 3.674z"/><path d="m27 35h-22v8h22zm-2 6h-18v-4h18z"/><path d="m5 45h22v2h-22z"/><path d="m5 49h26v2h-26z"/><path d="m5 53h26v2h-26z"/><path d="m5 57h6v2h-6z"/><path d="m13 57h6v2h-6z"/><path d="m21 57h6v2h-6z"/><path d="m20 7c-7.168 0-13 5.832-13 13s5.832 13 13 13 13-5.832 13-13-5.832-13-13-13zm0 24c-3.129 0-5.949-1.319-7.954-3.423.743-1.26 1.759-2.32 2.967-3.095l4.987 4.923 4.987-4.923c1.208.775 2.224 1.835 2.967 3.095-2.005 2.104-4.825 3.423-7.954 3.423zm-4-14c0-2.206 1.794-4 4-4s4 1.794 4 4-1.794 4-4 4-4-1.794-4-4zm.923 6.557c.978-.349 2.013-.557 3.077-.557s2.099.208 3.077.557l-3.077 3.038zm12.352 2.332c-1.348-1.956-3.292-3.432-5.506-4.227 1.359-1.101 2.231-2.781 2.231-4.662 0-3.309-2.691-6-6-6s-6 2.691-6 6c0 1.881.872 3.561 2.231 4.662-2.214.795-4.158 2.271-5.506 4.227-1.086-1.705-1.725-3.722-1.725-5.889 0-6.065 4.935-11 11-11s11 4.935 11 11c0 2.167-.639 4.184-1.725 5.889z"/><path d="m44.707 48.707 4.293-4.293 4.293 4.293 1.414-1.414-4.293-4.293 4.293-4.293-1.414-1.414-4.293 4.293-4.293-4.293-1.414 1.414 4.293 4.293-4.293 4.293z"/></g></g></svg>