<?xml version="1.0" encoding="iso-8859-1"?>
<!-- Generator: Adobe Illustrator 19.0.0, SVG Export Plug-In . SVG Version: 6.00 Build 0)  -->
<svg version="1.1" id="Capa_1" xmlns="http://www.w3.org/2000/svg" xmlns:xlink="http://www.w3.org/1999/xlink" x="0px" y="0px"
	 viewBox="0 0 512 512" style="enable-background:new 0 0 512 512;" xml:space="preserve">
<path style="fill:#E6E6E6;" d="M241.007,134.342L241.007,134.342c-6.793-6.793-16-10.607-25.6-10.607l0,0
	c-19.994,0-36.198,16.196-36.207,36.19c0,0.009,0,0.009,0,0.017l0,0c-0.009,26.889,4.309,53.598,12.8,79.104l4.267,12.689
	l7.484,89.754c0.589,7.151,6.562,12.646,13.739,12.646l0,0c7.245,0.026,13.269-5.572,13.764-12.8
	c1.34-20.062,4.463-58.812,6.289-81.135c0.768-9.617,8.806-17.024,18.458-16.998l0,0c9.66,0,17.681,7.441,18.423,17.067
	l6.238,81.135c0.555,7.177,6.537,12.723,13.739,12.732h0.137c7.177,0,13.15-5.495,13.747-12.646l7.45-89.754L320,239.046
	c8.491-25.506,12.809-52.215,12.8-79.104l0,0c0.009-19.994-16.196-36.198-36.19-36.207c-0.009,0-0.009,0-0.017,0l0,0
	c-9.6,0-18.807,3.814-25.6,10.607l0,0C262.716,142.619,249.284,142.619,241.007,134.342z"/>
<g>
	<path style="fill:#DEDEDE;" d="M203.75,341.489c0.606,7.595,7.253,13.252,14.848,12.646c6.801-0.546,12.186-5.99,12.655-12.8
		c0.93-13.952,2.722-36.881,4.343-57.105c-10.684,8.832-22.332,16.427-34.731,22.63L203.75,341.489z"/>
	<path style="fill:#DEDEDE;" d="M318.771,131.509c-7.578,42.334-24.516,82.432-49.579,117.376c3.012,3.072,4.847,7.1,5.188,11.383
		l6.238,81.135c0.555,7.194,6.562,12.749,13.781,12.732h0.137c7.177,0,13.15-5.495,13.739-12.646l7.458-89.754L320,239.046
		c8.491-25.506,12.809-52.215,12.8-79.104C332.774,148.806,327.595,138.31,318.771,131.509z"/>
</g>
<path style="fill:#E6E6E6;" d="M394.607,134.342L394.607,134.342c-6.793-6.793-16-10.607-25.6-10.607l0,0
	c-19.994,0-36.198,16.196-36.207,36.19c0,0.009,0,0.009,0,0.017l0,0c-0.009,26.889,4.309,53.598,12.8,79.104l4.267,12.689
	l7.484,89.754c0.589,7.151,6.562,12.646,13.739,12.646l0,0c7.245,0.026,13.269-5.572,13.764-12.8
	c1.34-20.062,4.463-58.812,6.289-81.135c0.768-9.617,8.806-17.024,18.458-16.998l0,0c9.66,0,17.681,7.441,18.423,17.067
	l6.238,81.135c0.555,7.177,6.537,12.723,13.739,12.732h0.137c7.177,0,13.15-5.495,13.747-12.646l7.45-89.754l4.267-12.689
	c8.491-25.506,12.809-52.215,12.8-79.104l0,0c0.009-19.994-16.196-36.198-36.19-36.207c-0.009,0-0.009,0-0.017,0l0,0
	c-9.6,0-18.807,3.814-25.6,10.607l0,0C416.316,142.619,402.884,142.619,394.607,134.342z"/>
<g>
	<path style="fill:#DEDEDE;" d="M357.35,341.489c0.606,7.595,7.253,13.252,14.848,12.646c6.801-0.546,12.186-5.99,12.655-12.8
		c0.93-13.952,2.722-36.881,4.343-57.105c-10.684,8.832-22.332,16.427-34.731,22.63L357.35,341.489z"/>
	<path style="fill:#DEDEDE;" d="M472.371,131.509c-7.578,42.334-24.516,82.432-49.579,117.376c3.012,3.072,4.847,7.1,5.188,11.383
		l6.238,81.135c0.555,7.194,6.562,12.749,13.781,12.732h0.137c7.177,0,13.15-5.495,13.739-12.646l7.458-89.754l4.267-12.689
		c8.491-25.506,12.809-52.215,12.8-79.104C486.374,148.806,481.195,138.31,472.371,131.509z"/>
</g>
<path style="fill:#E6E6E6;" d="M87.407,134.342L87.407,134.342c-6.793-6.793-16-10.607-25.6-10.607l0,0
	c-19.994,0-36.198,16.196-36.207,36.19c0,0.009,0,0.009,0,0.017l0,0c-0.009,26.889,4.309,53.598,12.8,79.104l4.267,12.689
	l7.484,89.754c0.589,7.151,6.562,12.646,13.739,12.646l0,0c7.245,0.026,13.269-5.572,13.764-12.8
	c1.34-20.062,4.463-58.812,6.289-81.135c0.768-9.617,8.806-17.024,18.458-16.998l0,0c9.66,0,17.681,7.441,18.423,17.067
	l6.238,81.135c0.555,7.177,6.537,12.723,13.739,12.732h0.137c7.177,0,13.15-5.495,13.747-12.646l7.45-89.754l4.267-12.689
	c8.491-25.506,12.809-52.215,12.8-79.104l0,0c0.009-19.994-16.196-36.198-36.19-36.207c-0.009,0-0.009,0-0.017,0l0,0
	c-9.6,0-18.807,3.814-25.6,10.607l0,0C109.116,142.619,95.684,142.619,87.407,134.342z"/>
<g>
	<path style="fill:#DEDEDE;" d="M50.15,341.489c0.606,7.595,7.253,13.252,14.848,12.646c6.801-0.546,12.186-5.99,12.655-12.8
		c0.93-13.952,2.722-36.881,4.343-57.105c-10.684,8.832-22.332,16.427-34.731,22.63L50.15,341.489z"/>
	<path style="fill:#DEDEDE;" d="M165.171,131.509c-7.578,42.334-24.516,82.432-49.579,117.376c3.012,3.072,4.847,7.1,5.188,11.383
		l6.238,81.135c0.555,7.194,6.562,12.749,13.781,12.732h0.137c7.177,0,13.15-5.495,13.739-12.646l7.458-89.754l4.267-12.689
		c8.491-25.506,12.809-52.215,12.8-79.104C179.174,148.806,173.995,138.31,165.171,131.509z"/>
</g>
<g>
	<rect y="183.468" style="fill:#4398D1;" width="85.333" height="17.067"/>
	<rect x="119.467" y="183.468" style="fill:#4398D1;" width="110.933" height="17.067"/>
	<rect x="273.067" y="183.468" style="fill:#4398D1;" width="110.933" height="17.067"/>
	<rect x="426.667" y="183.468" style="fill:#4398D1;" width="85.333" height="17.067"/>
</g>
<path style="fill:#F7A6A6;" d="M469.333,251.735l-7.484,89.754c-0.589,7.151-6.562,12.646-13.739,12.646H448
	c-7.211,0-13.201-5.547-13.756-12.732l-6.263-81.135c-0.794-10.18-9.685-17.783-19.857-16.998c-9.037,0.7-16.23,7.859-16.99,16.896
	c-1.826,22.323-4.949,61.073-6.289,81.135c-0.546,7.595-7.142,13.312-14.737,12.766c-6.767-0.486-12.177-5.82-12.757-12.578
	l-6.895-82.688h-0.589c-9.429-9.421-24.704-9.421-34.133,0h-0.589l-6.895,82.688c-0.589,7.151-6.562,12.646-13.739,12.646H294.4
	c-7.211,0-13.201-5.547-13.756-12.732l-6.263-81.135c-0.794-10.18-9.685-17.783-19.857-16.998c-9.037,0.7-16.23,7.859-16.99,16.896
	c-1.826,22.323-4.949,61.073-6.289,81.135c-0.546,7.595-7.142,13.312-14.737,12.766c-6.767-0.486-12.177-5.82-12.757-12.578
	l-6.775-81.22h-0.708c-9.421-9.429-24.704-9.429-34.125-0.009c0,0,0,0-0.009,0.009h-0.708l-6.775,81.22
	c-0.589,7.151-6.562,12.646-13.739,12.646H140.8c-7.211,0-13.201-5.547-13.756-12.732l-6.263-81.135
	c-0.794-10.18-9.685-17.783-19.857-16.998c-9.037,0.7-16.23,7.859-16.99,16.896c-1.826,22.323-4.949,61.073-6.289,81.135
	c-0.546,7.595-7.142,13.312-14.737,12.766c-6.767-0.486-12.177-5.82-12.757-12.578l-7.484-89.754
	c-6.255-9.429-18.961-11.998-28.39-5.743c-2.278,1.51-4.233,3.465-5.743,5.743v136.533h494.933V251.735
	c-6.255-9.429-18.961-11.998-28.39-5.743C472.798,247.503,470.844,249.457,469.333,251.735z"/>
<g>
	<path style="fill:#86C8DC;" d="M273.067,217.602h-34.133c-4.71,0-8.533-3.823-8.533-8.533v-34.133c0-4.71,3.823-8.533,8.533-8.533
		h34.133c4.71,0,8.533,3.823,8.533,8.533v34.133C281.6,213.779,277.777,217.602,273.067,217.602z M247.467,200.535h17.067v-17.067
		h-17.067V200.535z"/>
	<path style="fill:#86C8DC;" d="M119.467,217.602H85.333c-4.71,0-8.533-3.823-8.533-8.533v-34.133c0-4.71,3.823-8.533,8.533-8.533
		h34.133c4.71,0,8.533,3.823,8.533,8.533v34.133C128,213.779,124.177,217.602,119.467,217.602z M93.867,200.535h17.067v-17.067
		H93.867V200.535z"/>
	<path style="fill:#86C8DC;" d="M426.667,217.602h-34.133c-4.71,0-8.533-3.823-8.533-8.533v-34.133c0-4.71,3.823-8.533,8.533-8.533
		h34.133c4.71,0,8.533,3.823,8.533,8.533v34.133C435.2,213.779,431.377,217.602,426.667,217.602z M401.067,200.535h17.067v-17.067
		h-17.067V200.535z"/>
</g>
<path style="fill:#F59A9A;" d="M461.85,341.489c-0.589,7.151-6.562,12.646-13.739,12.646H448c-7.211,0-13.201-5.547-13.756-12.732
	l-3.584-46.652c-13.918,3.669-28.314,7.04-43.085,10.103c-1.075,13.824-2.082,27.153-2.705,36.446
	c-0.546,7.595-7.142,13.312-14.737,12.766c-6.767-0.486-12.177-5.82-12.757-12.578l-2.56-30.396
	c-14.686,2.56-29.594,4.89-44.612,6.98l-1.954,23.415c-0.589,7.151-6.562,12.646-13.739,12.646H294.4
	c-7.211,0-13.201-5.547-13.756-12.732l-1.485-19.328c-15.667,1.86-31.334,3.499-46.865,4.932c-0.393,5.291-0.751,10.24-1.024,14.293
	c-0.546,7.595-7.142,13.312-14.737,12.766c-6.767-0.486-12.177-5.82-12.757-12.578l-0.998-11.947
	c-16.111,1.254-31.949,2.304-47.369,3.191l-0.734,8.781c-0.606,7.151-6.588,12.638-13.764,12.621H140.8
	c-7.211,0-13.201-5.547-13.756-12.732l-0.555-7.202c-16.947,0.777-33.161,1.357-48.444,1.783c-0.128,1.818-0.265,3.712-0.375,5.316
	c-0.546,7.595-7.142,13.312-14.737,12.766c-6.767-0.486-12.177-5.82-12.757-12.578l-0.41-4.838
	c-15.172,0.282-29.013,0.427-41.207,0.495v51.123h494.908v-117.99c-11.554,4.983-23.893,9.609-36.838,13.875L461.85,341.489z"/>
<path d="M494.933,159.933c0-24.713-20.036-44.74-44.749-44.732c-11.861,0-23.236,4.71-31.625,13.099
	c-4.958,4.932-12.962,4.932-17.92,0l0,0c-17.382-17.434-45.611-17.468-63.044-0.085c-1.749,1.749-3.362,3.644-4.796,5.658
	c-14.31-20.036-42.146-24.678-62.182-10.368c-2.014,1.442-3.908,3.046-5.658,4.796c-4.958,4.932-12.962,4.932-17.92,0l0,0
	c-17.382-17.434-45.611-17.468-63.044-0.085c-1.749,1.749-3.362,3.644-4.796,5.658c-14.31-20.036-42.146-24.678-62.182-10.368
	c-2.014,1.442-3.908,3.046-5.658,4.796c-4.958,4.932-12.962,4.932-17.92,0l0,0c-17.476-17.468-45.798-17.468-63.275,0.009
	c-8.388,8.388-13.099,19.763-13.099,31.625c0,7.885,0.452,15.727,1.161,23.535H0v17.067h20.301
	c1.877,11.452,4.523,22.767,7.91,33.86c-0.853-0.085-1.707-0.324-2.611-0.324c-9.711-0.009-18.782,4.847-24.166,12.928
	C0.503,248.407,0,250.054,0,251.735v136.533c0,4.71,3.823,8.533,8.533,8.533h494.933c4.71,0,8.533-3.823,8.533-8.533V251.735
	c0-1.681-0.503-3.328-1.434-4.736c-5.385-8.081-14.455-12.937-24.166-12.928c-0.853,0-1.707,0.239-2.611,0.324
	c3.388-11.093,6.033-22.409,7.91-33.86H512v-17.067h-18.227C494.481,175.66,494.933,167.818,494.933,159.933z M369.007,132.268
	c7.347-0.017,14.387,2.901,19.567,8.107c11.622,11.588,30.43,11.588,42.052,0c10.812-10.803,28.331-10.803,39.134,0
	c5.188,5.188,8.107,12.228,8.107,19.558c0,7.885-0.512,15.727-1.271,23.535H435.2v-8.533c0-4.71-3.823-8.533-8.533-8.533h-34.133
	c-4.71,0-8.533,3.823-8.533,8.533v8.533h-41.395c-0.759-7.808-1.271-15.65-1.271-23.535
	C341.35,144.659,353.732,132.285,369.007,132.268z M418.133,183.468v17.067h-17.067v-17.067H418.133z M337.545,241.751l0.657,1.98
	c-3.575-0.589-7.228-0.589-10.803,0l0.657-1.98c1.809-5.41,3.302-10.889,4.745-16.393
	C334.242,230.863,335.736,236.375,337.545,241.751z M179.2,225.359c1.442,5.504,2.935,10.982,4.745,16.393l1.161,3.499
	c-3.908-0.717-7.902-0.717-11.81,0l1.161-3.499C176.265,236.375,177.758,230.863,179.2,225.359z M200.132,236.375
	c-3.874-11.699-6.852-23.68-8.9-35.84H230.4v8.533c0,4.71,3.823,8.533,8.533,8.533h34.133c4.71,0,8.533-3.823,8.533-8.533v-8.533
	h39.168c-2.048,12.16-5.026,24.141-8.9,35.84l-4.267,12.689c-0.213,0.649-0.35,1.314-0.41,1.988l-7.475,89.754
	c-0.264,2.935-2.859,5.094-5.786,4.838c-2.569-0.23-4.608-2.27-4.838-4.838l-6.238-81.135
	c-1.118-14.874-14.071-26.027-28.954-24.917c-13.269,0.99-23.842,11.503-24.9,24.772c-1.775,21.623-4.949,60.945-6.298,81.263
	c-0.188,2.893-2.688,5.094-5.589,4.907c-2.62-0.171-4.71-2.244-4.898-4.855l-7.415-89.813c-0.06-0.674-0.196-1.34-0.41-1.988
	L200.132,236.375z M247.467,200.535v-17.067h17.067v17.067H247.467z M215.407,132.268c7.347-0.017,14.387,2.901,19.567,8.107
	c11.622,11.588,30.43,11.588,42.052,0c10.812-10.803,28.331-10.803,39.134,0c5.188,5.188,8.107,12.228,8.107,19.558
	c0,7.885-0.512,15.727-1.271,23.535H281.6v-8.533c0-4.71-3.823-8.533-8.533-8.533h-34.133c-4.71,0-8.533,3.823-8.533,8.533v8.533
	h-41.395c-0.759-7.808-1.271-15.65-1.271-23.535C187.75,144.659,200.132,132.285,215.407,132.268z M34.133,159.933
	c0.009-15.283,12.399-27.665,27.682-27.665c7.339,0,14.37,2.918,19.558,8.107c11.622,11.588,30.43,11.588,42.052,0
	c10.812-10.803,28.331-10.803,39.134,0c5.188,5.188,8.107,12.228,8.107,19.558c0,7.885-0.512,15.727-1.271,23.535H128v-8.533
	c0-4.71-3.823-8.533-8.533-8.533H85.333c-4.71,0-8.533,3.823-8.533,8.533v8.533H35.405C34.645,175.66,34.133,167.818,34.133,159.933
	z M110.933,183.468v17.067H93.867v-17.067H110.933z M76.8,200.535v8.533c0,4.71,3.823,8.533,8.533,8.533h34.133
	c4.71,0,8.533-3.823,8.533-8.533v-8.533h39.168c-2.048,12.16-5.026,24.141-8.9,35.84l-4.267,12.689
	c-0.213,0.649-0.35,1.314-0.41,1.988l-7.475,89.754c-0.265,2.935-2.859,5.094-5.786,4.838c-2.569-0.23-4.608-2.27-4.838-4.838
	l-6.238-81.135c-1.118-14.874-14.071-26.027-28.954-24.917c-13.269,0.99-23.842,11.503-24.9,24.772
	c-1.775,21.623-4.949,60.945-6.298,81.263c-0.188,2.893-2.688,5.094-5.589,4.907c-2.62-0.171-4.71-2.244-4.898-4.855L51.2,251.027
	c-0.06-0.674-0.196-1.34-0.41-1.988l-4.267-12.689c-3.874-11.691-6.844-23.663-8.892-35.814H76.8z M494.933,254.696v125.039H17.067
	V254.696c4.907-4.625,12.621-4.446,17.314,0.401l7.262,87.091c1.024,12.288,11.81,21.419,24.098,20.403
	c10.999-0.913,19.678-9.719,20.42-20.736c1.348-20.207,4.514-59.418,6.281-81.007c0.469-5.478,5.299-9.532,10.769-9.054
	c4.847,0.418,8.678,4.275,9.062,9.122l6.238,81.135c0.981,12.331,11.785,21.53,24.115,20.548
	c10.914-0.87,19.593-9.506,20.531-20.412l6.426-77.047c5.641-4.454,13.594-4.454,19.234,0l6.426,77.047
	c1.024,12.288,11.81,21.419,24.098,20.403c10.999-0.913,19.678-9.719,20.42-20.736c1.348-20.207,4.514-59.418,6.281-81.007
	c0.469-5.478,5.299-9.532,10.769-9.054c4.847,0.418,8.678,4.275,9.062,9.122l6.238,81.135c0.981,12.331,11.785,21.53,24.115,20.548
	c10.914-0.87,19.593-9.506,20.531-20.412l6.554-78.626c5.589-4.309,13.389-4.309,18.978,0l6.554,78.626
	c1.024,12.288,11.81,21.419,24.098,20.403c10.999-0.913,19.678-9.719,20.42-20.736c1.348-20.207,4.514-59.418,6.281-81.007
	c0.469-5.478,5.299-9.532,10.769-9.054c4.847,0.418,8.678,4.275,9.062,9.122l6.238,81.135c0.981,12.331,11.785,21.53,24.115,20.548
	c10.914-0.87,19.593-9.506,20.531-20.412l7.262-87.1C482.313,250.25,490.027,250.071,494.933,254.696z M465.468,236.375
	l-4.267,12.689c-0.213,0.649-0.35,1.314-0.41,1.988l-7.475,89.754c-0.265,2.935-2.859,5.094-5.786,4.838
	c-2.569-0.23-4.608-2.27-4.838-4.838l-6.238-81.135c-1.118-14.874-14.071-26.027-28.954-24.917
	c-13.269,0.99-23.842,11.503-24.9,24.772c-1.775,21.623-4.949,60.945-6.298,81.263c-0.188,2.893-2.688,5.094-5.589,4.907
	c-2.62-0.171-4.71-2.244-4.898-4.855l-7.415-89.813c-0.06-0.674-0.196-1.34-0.41-1.988l-4.267-12.689
	c-3.874-11.691-6.844-23.663-8.892-35.814H384v8.533c0,4.71,3.823,8.533,8.533,8.533h34.133c4.71,0,8.533-3.823,8.533-8.533v-8.533
	h39.168C472.32,212.695,469.342,224.676,465.468,236.375z"/>
<g>
</g>
<g>
</g>
<g>
</g>
<g>
</g>
<g>
</g>
<g>
</g>
<g>
</g>
<g>
</g>
<g>
</g>
<g>
</g>
<g>
</g>
<g>
</g>
<g>
</g>
<g>
</g>
<g>
</g>
</svg>
