<svg id="Line" height="512" viewBox="0 0 64 64" width="512" xmlns="http://www.w3.org/2000/svg"><g fill="#c4a2fc"><path d="m22 62h38a3 3 0 0 0 3-3 5.006 5.006 0 0 0 -5-5h-34a5.006 5.006 0 0 0 -5 5 3 3 0 0 0 3 3z"/><path d="m42 21v-6a1 1 0 0 0 -2 0v6a1 1 0 0 0 2 0z"/><path d="m59.707 21.293a1 1 0 0 0 -1.414 0l-4.5 4.5a1 1 0 0 0 1.414 1.414l4.5-4.5a1 1 0 0 0 0-1.414z"/><path d="m28.207 27.207a1 1 0 0 0 0-1.414l-4.5-4.5a1 1 0 0 0 -1.414 1.414l4.5 4.5a1 1 0 0 0 1.414 0z"/><path d="m39 46v6h4v-6a2 2 0 0 0 -4 0z"/><path d="m57 52v-12a16 16 0 0 0 -32 0v12h12v-6a4 4 0 0 1 8 0v6zm-23-2h-4a1 1 0 0 1 0-2h4a1 1 0 0 1 0 2zm.707-7.293a1 1 0 0 1 -1.414 0l-3.5-3.5a1 1 0 0 1 1.414-1.414l3.5 3.5a1 1 0 0 1 0 1.414zm12.586-1.414 3.5-3.5a1 1 0 0 1 1.414 1.414l-3.5 3.5a1 1 0 0 1 -1.414-1.414zm.707 6.707h4a1 1 0 0 1 0 2h-4a1 1 0 0 1 0-2z"/></g><path d="m47.179 29.11-8.566-2.078-5.189-7.707a3 3 0 0 0 -2.488-1.325h-3.936v-3a3 3 0 0 0 -3-3h-2.057a3 3 0 0 0 -3 3v3h-3.887a3 3 0 0 0 -2.478 1.308l-5.349 7.834-3.543 1.85a4.985 4.985 0 0 0 -2.686 4.432v7.576a3 3 0 0 0 3 3h3.08a6.991 6.991 0 0 0 13.84 0h10.157a7.009 7.009 0 0 0 13.879.018h3.044a3 3 0 0 0 3-3v-7.049a4.987 4.987 0 0 0 -3.821-4.859zm-15.413-8.668 4.356 6.471h-12.188v-6.913h7a1 1 0 0 1 .832.442zm-10.823-5.442a1 1 0 0 1 1-1h2.057a1 1 0 0 1 1 1v3h-4.057zm-6.714 5.436a1 1 0 0 1 .827-.436h6.878v6.913h-12.127zm-.229 27.564a5 5 0 1 1 5-5 5.006 5.006 0 0 1 -5 5zm24.018.036a5.018 5.018 0 1 1 5.018-5.018 5.024 5.024 0 0 1 -5.018 5.018zm10.982-7.018a1 1 0 0 1 -1 1h-3.044a7.009 7.009 0 0 0 -13.874-.018h-10.162a6.991 6.991 0 0 0 -13.84 0h-3.08a1 1 0 0 1 -1-1v-7.576a2.993 2.993 0 0 1 1.611-2.66l3.547-1.851h29.723l8.827 2.141a2.991 2.991 0 0 1 2.292 2.915z" fill="#151a6a"/><path d="m10 15a1 1 0 0 0 1 1h5a1 1 0 0 0 0-2h-5a1 1 0 0 0 -1 1z" fill="#151a6a"/><path d="m29 15a1 1 0 0 0 1 1h5a1 1 0 0 0 0-2h-5a1 1 0 0 0 -1 1z" fill="#151a6a"/><path d="m18.757 10.757a1 1 0 0 0 0-1.414l-3.535-3.535a1 1 0 0 0 -1.414 1.414l3.535 3.535a1 1 0 0 0 1.414 0z" fill="#151a6a"/><path d="m24 8v-5a1 1 0 0 0 -2 0v5a1 1 0 0 0 2 0z" fill="#151a6a"/><path d="m30.778 5.808-3.535 3.535a1 1 0 1 0 1.414 1.414l3.535-3.535a1 1 0 0 0 -1.414-1.414z" fill="#151a6a"/></svg>