<?xml version="1.0" encoding="iso-8859-1"?>
<!-- Generator: Adobe Illustrator 19.0.0, SVG Export Plug-In . SVG Version: 6.00 Build 0)  -->
<svg version="1.1" id="Capa_1" xmlns="http://www.w3.org/2000/svg" xmlns:xlink="http://www.w3.org/1999/xlink" x="0px" y="0px"
	 viewBox="0 0 512 512" style="enable-background:new 0 0 512 512;" xml:space="preserve">
<path style="fill:#235087;" d="M277.333,418.133c-0.128-65.852,53.137-119.339,118.989-119.467
	c14.754-0.026,29.38,2.679,43.145,7.987V85.333h-409.6v341.333H277.76C277.564,423.834,277.333,421.018,277.333,418.133z"/>
<path style="fill:#163768;" d="M29.867,401.067v25.6H277.76c-0.196-2.833-0.427-5.649-0.427-8.533
	c-0.128-65.852,53.137-119.339,118.989-119.467c14.754-0.026,29.38,2.679,43.145,7.987V93.867
	C386.347,275.891,219.486,401.033,29.867,401.067z"/>
<g>
	<path style="fill:#4DB5FF;" d="M268.8,256v68.267h54.246c4.437-3.516,9.122-6.707,14.02-9.557V256H268.8z"/>
	<rect x="337.067" y="187.733" style="fill:#4DB5FF;" width="68.267" height="68.267"/>
</g>
<g>
	<path style="fill:#B7E5FF;" d="M337.067,314.709c18.142-10.53,38.758-16.068,59.733-16.043c2.884,0,5.7,0.23,8.533,0.427V256
		h-68.267V314.709z"/>
	<rect x="132.267" y="324.267" style="fill:#B7E5FF;" width="68.267" height="68.267"/>
</g>
<g>
	<rect x="64" y="324.267" style="fill:#4DB5FF;" width="68.267" height="68.267"/>
	<rect x="200.533" y="324.267" style="fill:#4DB5FF;" width="68.267" height="68.267"/>
</g>
<path style="fill:#B7E5FF;" d="M268.8,392.533h11.349c5.965-27.034,21.129-51.166,42.897-68.267H268.8V392.533z"/>
<circle style="fill:#FFDC13;" cx="396.8" cy="418.133" r="85.333"/>
<rect x="29.867" y="25.6" style="fill:#4DB5FF;" width="409.6" height="59.733"/>
<g>
	<path style="fill:#235087;" d="M64,51.2c-4.71,0-8.533-3.823-8.533-8.533V8.533C55.467,3.823,59.29,0,64,0
		c4.71,0,8.533,3.823,8.533,8.533v34.133C72.533,47.377,68.71,51.2,64,51.2z"/>
	<path style="fill:#235087;" d="M98.133,51.2c-4.71,0-8.533-3.823-8.533-8.533V8.533C89.6,3.823,93.423,0,98.133,0
		c4.71,0,8.533,3.823,8.533,8.533v34.133C106.667,47.377,102.844,51.2,98.133,51.2z"/>
	<path style="fill:#235087;" d="M132.267,51.2c-4.71,0-8.533-3.823-8.533-8.533V8.533c0-4.71,3.823-8.533,8.533-8.533
		s8.533,3.823,8.533,8.533v34.133C140.8,47.377,136.977,51.2,132.267,51.2z"/>
	<path style="fill:#235087;" d="M337.067,51.2c-4.71,0-8.533-3.823-8.533-8.533V8.533c0-4.71,3.823-8.533,8.533-8.533
		s8.533,3.823,8.533,8.533v34.133C345.6,47.377,341.777,51.2,337.067,51.2z"/>
	<path style="fill:#235087;" d="M371.2,51.2c-4.71,0-8.533-3.823-8.533-8.533V8.533c0-4.71,3.823-8.533,8.533-8.533
		s8.533,3.823,8.533,8.533v34.133C379.733,47.377,375.91,51.2,371.2,51.2z"/>
	<path style="fill:#235087;" d="M405.333,51.2c-4.71,0-8.533-3.823-8.533-8.533V8.533c0-4.71,3.823-8.533,8.533-8.533
		c4.71,0,8.533,3.823,8.533,8.533v34.133C413.867,47.377,410.044,51.2,405.333,51.2z"/>
	<path style="fill:#235087;" d="M166.4,51.2c-4.71,0-8.533-3.823-8.533-8.533V8.533c0-4.71,3.823-8.533,8.533-8.533
		s8.533,3.823,8.533,8.533v34.133C174.933,47.377,171.11,51.2,166.4,51.2z"/>
	<path style="fill:#235087;" d="M302.933,51.2c-4.71,0-8.533-3.823-8.533-8.533V8.533c0-4.71,3.823-8.533,8.533-8.533
		s8.533,3.823,8.533,8.533v34.133C311.467,47.377,307.644,51.2,302.933,51.2z"/>
</g>
<path style="fill:#EF2648;" d="M396.8,426.667c-2.261,0-4.437-0.896-6.033-2.5l-25.6-25.6c-3.277-3.388-3.183-8.789,0.205-12.066
	c3.311-3.191,8.55-3.191,11.861,0l19.567,19.567l36.634-36.634c3.388-3.277,8.789-3.183,12.066,0.205
	c3.191,3.311,3.191,8.55,0,11.861l-42.667,42.667C401.237,425.771,399.061,426.667,396.8,426.667z"/>
<rect x="268.8" y="119.467" style="fill:#4DB5FF;" width="68.267" height="68.267"/>
<rect x="200.533" y="119.467" style="fill:#B7E5FF;" width="68.267" height="68.267"/>
<rect x="64" y="187.733" style="fill:#4DB5FF;" width="68.267" height="68.267"/>
<rect x="64" y="119.467" style="fill:#B7E5FF;" width="68.267" height="68.267"/>
<g>
	<rect x="132.267" y="119.467" style="fill:#4DB5FF;" width="68.267" height="68.267"/>
	<rect x="200.533" y="187.733" style="fill:#4DB5FF;" width="68.267" height="68.267"/>
</g>
<rect x="132.267" y="187.733" style="fill:#B7E5FF;" width="68.267" height="68.267"/>
<rect x="132.267" y="256" style="fill:#4DB5FF;" width="68.267" height="68.267"/>
<g>
	<rect x="200.533" y="256" style="fill:#B7E5FF;" width="68.267" height="68.267"/>
	<rect x="268.8" y="187.733" style="fill:#B7E5FF;" width="68.267" height="68.267"/>
	<rect x="64" y="256" style="fill:#B7E5FF;" width="68.267" height="68.267"/>
	<rect x="337.067" y="119.467" style="fill:#B7E5FF;" width="68.267" height="68.267"/>
</g>
<path style="fill:#E5AF17;" d="M447.932,349.935c28.305,37.598,20.77,91.025-16.828,119.33c-30.345,22.844-72.158,22.844-102.502,0
	c28.186,37.717,81.613,45.44,119.33,17.254c37.717-28.186,45.44-81.613,17.254-119.33
	C460.288,360.636,454.477,354.833,447.932,349.935z"/>
<g>
	<path style="fill:#3596D8;" d="M273.92,324.267h49.101c4.446-3.516,9.139-6.707,14.046-9.557v-44.373
		C317.816,290.313,296.67,308.378,273.92,324.267z"/>
	<path style="fill:#3596D8;" d="M350.268,256h55.066v-68.267h-6.025C385.246,212.045,368.819,234.906,350.268,256z"/>
</g>
<g>
	<path style="fill:#96D0EA;" d="M337.067,270.327v44.373c18.142-10.53,38.758-16.06,59.733-16.034c2.884,0,5.7,0.23,8.533,0.427V256
		h-55.066C345.975,260.881,341.581,265.66,337.067,270.327z"/>
	<path style="fill:#96D0EA;" d="M132.267,388.608v3.925h68.267v-27.068C178.475,375.108,155.64,382.848,132.267,388.608z"/>
</g>
<g>
	<path style="fill:#3596D8;" d="M115.098,392.533h17.169v-3.925C126.584,390.016,120.875,391.364,115.098,392.533z"/>
	<path style="fill:#3596D8;" d="M200.533,365.466v27.068H268.8v-64.606C247.236,342.502,224.384,355.064,200.533,365.466z"/>
</g>
<path style="fill:#96D0EA;" d="M268.8,327.927v64.606h11.349c5.965-27.034,21.129-51.166,42.897-68.267H273.92
	C272.213,325.47,270.549,326.75,268.8,327.927z"/>
<path d="M285.867,418.133c0.026-8.448,1.024-16.862,2.97-25.079c1.894-8.183,4.736-16.119,8.457-23.646
	c0.367-0.751,0.7-1.51,1.084-2.253c1.135-2.167,2.364-4.267,3.635-6.357c0.401-0.657,0.794-1.331,1.212-1.98
	c1.382-2.167,2.842-4.284,4.369-6.34c0.316-0.435,0.64-0.853,0.964-1.297c1.707-2.227,3.482-4.395,5.316-6.485l0.256-0.282
	c12.194-13.602,27.511-24.03,44.638-30.387l1.502-0.555c2.304-0.811,4.642-1.527,7.006-2.193c1.067-0.299,2.15-0.572,3.234-0.853
	c1.997-0.495,4.002-0.956,6.033-1.34c1.707-0.316,3.482-0.555,5.231-0.794c1.545-0.222,3.072-0.469,4.634-0.614
	c3.413-0.324,6.886-0.529,10.394-0.529c2.313,0,4.591,0.179,6.827,0.333l1.067,0.077c0.068,0,0.145,0,0.213,0
	c10.769,0.811,21.367,3.183,31.462,7.04c4.395,1.707,9.335-0.461,11.051-4.855c0.384-0.981,0.58-2.031,0.58-3.089V25.6
	c0-4.71-3.823-8.533-8.533-8.533h-25.6V8.533c0-4.71-3.823-8.533-8.533-8.533S396.8,3.823,396.8,8.533v8.533h-17.067V8.533
	c0-4.71-3.823-8.533-8.533-8.533s-8.533,3.823-8.533,8.533v8.533H345.6V8.533c0-4.71-3.823-8.533-8.533-8.533
	s-8.533,3.823-8.533,8.533v8.533h-17.067V8.533c0-4.71-3.823-8.533-8.533-8.533S294.4,3.823,294.4,8.533v8.533H174.933V8.533
	c0-4.71-3.823-8.533-8.533-8.533s-8.533,3.823-8.533,8.533v8.533H140.8V8.533c0-4.71-3.823-8.533-8.533-8.533
	c-4.71,0-8.533,3.823-8.533,8.533v8.533h-17.067V8.533c0-4.71-3.823-8.533-8.533-8.533C93.423,0,89.6,3.823,89.6,8.533v8.533H72.533
	V8.533C72.533,3.823,68.71,0,64,0s-8.533,3.823-8.533,8.533v8.533h-25.6c-4.71,0-8.533,3.823-8.533,8.533v401.067
	c0,4.71,3.823,8.533,8.533,8.533H277.76c4.71,0.009,8.542-3.797,8.55-8.516c0-0.205-0.009-0.41-0.017-0.614l-0.068-0.99
	C286.037,422.775,285.867,420.471,285.867,418.133z M285.44,355.251c-1.229,2.159-2.338,4.386-3.413,6.622
	c-0.606,1.229-1.22,2.449-1.783,3.703c-0.93,2.057-1.801,4.156-2.62,6.272c-0.085,0.213-0.179,0.41-0.264,0.623V332.8h24.329
	c-5.82,6.468-10.965,13.508-15.36,21.018C286.029,354.304,285.713,354.765,285.44,355.251z M384.973,290.731
	c-1.707,0.154-3.302,0.418-4.958,0.631c-2.091,0.282-4.173,0.572-6.229,0.956c-2.057,0.384-4.318,0.853-6.451,1.374
	c-1.306,0.316-2.611,0.649-3.908,1.007c-2.56,0.7-5.12,1.459-7.68,2.313c-0.324,0.119-0.64,0.247-0.964,0.358
	c-3.106,1.084-6.178,2.219-9.165,3.524v-36.361h51.2v25.6C392.824,290.133,388.881,290.364,384.973,290.731z M396.8,247.467h-51.2
	v-51.2h51.2V247.467z M328.533,247.467h-51.2v-51.2h51.2V247.467z M260.267,247.467h-51.2v-51.2h51.2V247.467z M192,247.467h-51.2
	v-51.2H192V247.467z M192,264.533v51.2h-51.2v-51.2H192z M209.067,264.533h51.2v51.2h-51.2V264.533z M277.333,264.533h51.2v45.517
	c-2.935,1.86-5.769,3.84-8.533,5.922v-0.239h-42.667V264.533z M396.8,179.2h-51.2V128h51.2V179.2z M328.533,179.2h-51.2V128h51.2
	V179.2z M260.267,179.2h-51.2V128h51.2V179.2z M192,179.2h-51.2V128H192V179.2z M123.733,179.2h-51.2V128h51.2V179.2z
	 M72.533,196.267h51.2v51.2h-51.2V196.267z M72.533,264.533h51.2v51.2h-51.2V264.533z M72.533,332.8h51.2V384h-51.2V332.8z
	 M140.8,332.8H192V384h-51.2V332.8z M209.067,332.8h51.2V384h-51.2V332.8z M38.4,34.133h17.067v8.533
	c0,4.71,3.823,8.533,8.533,8.533c4.71,0,8.533-3.823,8.533-8.533v-8.533H89.6v8.533c0,4.71,3.823,8.533,8.533,8.533
	c4.71,0,8.533-3.823,8.533-8.533v-8.533h17.067v8.533c0,4.71,3.823,8.533,8.533,8.533s8.533-3.823,8.533-8.533v-8.533h17.067v8.533
	c0,4.71,3.823,8.533,8.533,8.533s8.533-3.823,8.533-8.533v-8.533H294.4v8.533c0,4.71,3.823,8.533,8.533,8.533
	s8.533-3.823,8.533-8.533v-8.533h17.067v8.533c0,4.71,3.823,8.533,8.533,8.533s8.533-3.823,8.533-8.533v-8.533h17.067v8.533
	c0,4.71,3.823,8.533,8.533,8.533s8.533-3.823,8.533-8.533v-8.533H396.8v8.533c0,4.71,3.823,8.533,8.533,8.533
	c4.71,0,8.533-3.823,8.533-8.533v-8.533h17.067V76.8H38.4V34.133z M38.4,418.133V93.867h392.533v200.977
	c-5.598-1.57-11.307-2.756-17.067-3.541V119.467c0-4.71-3.823-8.533-8.533-8.533H64c-4.71,0-8.533,3.823-8.533,8.533v273.067
	c0,4.71,3.823,8.533,8.533,8.533h206.071c-0.802,5.658-1.229,11.358-1.271,17.067H38.4z"/>
<path d="M396.8,324.267c-51.84,0-93.867,42.027-93.867,93.867S344.96,512,396.8,512s93.867-42.027,93.867-93.867
	C490.607,366.319,448.614,324.326,396.8,324.267z M396.8,494.933c-42.419,0-76.8-34.381-76.8-76.8s34.381-76.8,76.8-76.8
	s76.8,34.381,76.8,76.8C473.549,460.527,439.194,494.882,396.8,494.933z"/>
<g>
</g>
<g>
</g>
<g>
</g>
<g>
</g>
<g>
</g>
<g>
</g>
<g>
</g>
<g>
</g>
<g>
</g>
<g>
</g>
<g>
</g>
<g>
</g>
<g>
</g>
<g>
</g>
<g>
</g>
</svg>
