<?xml version="1.0"?>
<svg xmlns="http://www.w3.org/2000/svg" width="512" height="512" viewBox="0 0 128 128"><g><g><path d="M98.5,18.263H81.719v10H46.281v-10H29.5a8,8,0,0,0-8,8v91.983a8,8,0,0,0,8,8h69a8,8,0,0,0,8-8V26.263A8,8,0,0,0,98.5,18.263Z" fill="#596c76"/><rect x="31.5" y="28.264" width="65" height="87.982" fill="#e1ebf0"/><rect x="46.281" y="1.747" width="35.437" height="26.517" fill="#3b4a51"/><path d="M69.531,13.256H65.75V9.475a1.75,1.75,0,1,0-3.5,0v3.781H58.469a1.75,1.75,0,1,0,0,3.5H62.25v3.781a1.75,1.75,0,1,0,3.5,0V16.756h3.781a1.75,1.75,0,0,0,0-3.5Z" fill="#52dddc"/><path d="M46.373,59.631a1.746,1.746,0,0,1-1.13-.414l-4.874-4.125a1.75,1.75,0,1,1,2.262-2.672l3.547,3L54.8,45.382a1.75,1.75,0,1,1,2.656,2.279L47.7,59.021A1.748,1.748,0,0,1,46.373,59.631Z" fill="#52dddc"/><path d="M86.5,50.021H64a1.75,1.75,0,0,1,0-3.5H86.5a1.75,1.75,0,0,1,0,3.5Z" fill="#b4d2d7"/><path d="M79.25,57.882H64a1.75,1.75,0,0,1,0-3.5H79.25a1.75,1.75,0,0,1,0,3.5Z" fill="#b4d2d7"/><path d="M46.373,79.685a1.746,1.746,0,0,1-1.13-.414l-4.874-4.125a1.75,1.75,0,1,1,2.262-2.672l3.547,3L54.8,65.435a1.75,1.75,0,0,1,2.656,2.28L47.7,79.074A1.746,1.746,0,0,1,46.373,79.685Z" fill="#52dddc"/><path d="M86.5,70.074H64a1.75,1.75,0,0,1,0-3.5H86.5a1.75,1.75,0,0,1,0,3.5Z" fill="#b4d2d7"/><path d="M79.25,77.935H64a1.75,1.75,0,0,1,0-3.5H79.25a1.75,1.75,0,0,1,0,3.5Z" fill="#b4d2d7"/><path d="M46.373,99.738a1.741,1.741,0,0,1-1.13-.414L40.369,95.2a1.75,1.75,0,1,1,2.262-2.672l3.547,3L54.8,85.489a1.75,1.75,0,1,1,2.656,2.28L47.7,99.128A1.748,1.748,0,0,1,46.373,99.738Z" fill="#52dddc"/><path d="M86.5,90.128H64a1.75,1.75,0,1,1,0-3.5H86.5a1.75,1.75,0,0,1,0,3.5Z" fill="#b4d2d7"/><path d="M79.25,97.989H64a1.75,1.75,0,0,1,0-3.5H79.25a1.75,1.75,0,0,1,0,3.5Z" fill="#b4d2d7"/></g><g><path d="M98.5,16.514H83.469V1.747A1.75,1.75,0,0,0,81.719,0H46.281a1.749,1.749,0,0,0-1.75,1.75V16.514H29.5a9.761,9.761,0,0,0-9.75,9.75v91.982A9.761,9.761,0,0,0,29.5,128h69a9.761,9.761,0,0,0,9.75-9.75V86.628a1.75,1.75,0,1,0-3.5,0v31.618a6.257,6.257,0,0,1-6.25,6.25h-69a6.257,6.257,0,0,1-6.25-6.25V26.264a6.257,6.257,0,0,1,6.25-6.25H44.531v6.5H31.5a1.749,1.749,0,0,0-1.75,1.75v79.111a1.75,1.75,0,0,0,3.5,0V30.014h61.5V114.5H41.5a1.75,1.75,0,1,0,0,3.5h55a1.749,1.749,0,0,0,1.75-1.75V28.264a1.749,1.749,0,0,0-1.75-1.75H83.469v-6.5H98.5a6.257,6.257,0,0,1,6.25,6.25V42.323a1.75,1.75,0,1,0,3.5,0V26.264A9.761,9.761,0,0,0,98.5,16.514Zm-50.469,10V3.5H79.969V26.514Z"/><path d="M106.5,57.881a1.749,1.749,0,0,0-1.75,1.75V69.32a1.75,1.75,0,0,0,3.5,0V59.631A1.749,1.749,0,0,0,106.5,57.881Z"/><path d="M69.531,13.256H65.75V9.475a1.75,1.75,0,1,0-3.5,0v3.781H58.469a1.75,1.75,0,1,0,0,3.5H62.25v3.781a1.75,1.75,0,1,0,3.5,0V16.756h3.781a1.75,1.75,0,0,0,0-3.5Z"/><path d="M45.243,59.217a1.751,1.751,0,0,0,2.459-.2l9.751-11.36A1.75,1.75,0,1,0,54.8,45.382L46.178,55.423l-3.547-3a1.75,1.75,0,1,0-2.262,2.672Z"/><path d="M64,50.021H86.5a1.75,1.75,0,0,0,0-3.5H64a1.75,1.75,0,0,0,0,3.5Z"/><path d="M64,57.882H79.25a1.75,1.75,0,0,0,0-3.5H64a1.75,1.75,0,0,0,0,3.5Z"/><path d="M40.369,75.146l4.874,4.125a1.75,1.75,0,0,0,2.459-.2l9.751-11.359a1.75,1.75,0,0,0-2.656-2.28L46.178,75.477l-3.547-3a1.75,1.75,0,1,0-2.262,2.672Z"/><path d="M64,70.074H86.5a1.75,1.75,0,0,0,0-3.5H64a1.75,1.75,0,0,0,0,3.5Z"/><path d="M64,77.935H79.25a1.75,1.75,0,0,0,0-3.5H64a1.75,1.75,0,0,0,0,3.5Z"/><path d="M40.369,95.2l4.874,4.125a1.751,1.751,0,0,0,2.459-.2l9.751-11.359a1.75,1.75,0,1,0-2.656-2.28L46.178,95.53l-3.547-3A1.75,1.75,0,1,0,40.369,95.2Z"/><path d="M64,90.128H86.5a1.75,1.75,0,0,0,0-3.5H64a1.75,1.75,0,1,0,0,3.5Z"/><path d="M64,97.989H79.25a1.75,1.75,0,0,0,0-3.5H64a1.75,1.75,0,0,0,0,3.5Z"/></g></g></svg>
