<svg id="Capa_1" enable-background="new 0 0 512 512" height="512" viewBox="0 0 512 512" width="512" xmlns="http://www.w3.org/2000/svg"><g><g><path d="m227.986 325.535-78.039.073v74.351h23.576l33.232 29.291c21.307 13.382 45.922 20.476 71.042 20.476h105.523c9.112-.957 17.686-4.806 24.48-10.988l84.819-76.228c13.471-12.616 12.263-34.434-2.518-45.466-11.402-8.51-27.217-7.622-37.607 2.113l-66.294 61.584c-3.184 2.573-7.146 3.976-11.231 3.976h-4.673c15.948 0 28.877-13.003 28.877-29.044 0-16.041-12.929-30.065-28.877-30.065l-51.899-.073" fill="#ffdcd5"/><g><path d="m98.38 312.849h51.567v94.669h-51.567z" fill="#faf7f5"/><path d="m10 302.365h88.38v115.637h-88.38z" fill="#99ebfa"/></g><g><path d="m302.557 111.463c0-27.167-22.023-49.19-49.19-49.19-27.167 0-49.19 22.023-49.19 49.19v45.585h98.38z" fill="#faf7f5"/><path d="m204.178 157.047v45.585c0 27.167 22.023 49.19 49.19 49.19 27.167 0 49.19-22.023 49.19-49.19v-45.585z" fill="#ff7d97"/></g><ellipse cx="407.187" cy="199.388" fill="#ccf5fc" rx="63.608" ry="63.608" transform="matrix(.23 -.973 .973 .23 119.581 549.873)"/></g><g><g><path d="m511.938 338.615c-.656-11.77-6.435-22.553-15.855-29.584-15.289-11.412-36.497-10.224-50.393 2.8l-37.542 34.873c-4.073-17.57-19.754-31.096-37.836-31.096l-51.898-.073h-.014c-5.517 0-9.992 4.468-10 9.986-.008 5.522 4.463 10.006 9.986 10.014l51.912.073c10.232 0 18.877 9.189 18.877 20.065 0 10.501-8.468 19.044-18.877 19.044h-88.735c-5.522 0-10 4.478-10 10s4.478 10 10 10h93.408c6.349 0 12.568-2.201 17.516-6.198.179-.145.352-.295.52-.452l66.326-61.612c6.848-6.416 17.273-7.005 24.787-1.396 4.663 3.48 7.523 8.828 7.85 14.671.324 5.82-1.904 11.435-6.118 15.418l-84.78 76.195c-5.135 4.671-11.455 7.564-18.309 8.384h-104.967c-22.998 0-45.472-6.402-65.048-18.523l-32.613-28.746c-1.826-1.609-4.178-2.498-6.612-2.498h-13.576v-54.36l68.049-.063c5.522-.005 9.995-4.486 9.99-10.01-.005-5.52-4.481-9.99-10-9.99h-.01l-68.029.064v-2.75c0-5.522-4.478-10-10-10h-41.567v-.484c0-5.522-4.478-10-10-10h-88.38c-5.523 0-10 4.478-10 10v115.637c0 5.522 4.477 10 10 10h88.38c5.522 0 10-4.478 10-10v-.483h41.566c4.68 0 8.609-3.216 9.699-7.559h10.099l30.398 26.794c.404.357.837.68 1.294.967 22.925 14.397 49.329 22.007 76.359 22.007h105.523c.349 0 .697-.019 1.045-.055 11.306-1.188 21.736-5.868 30.12-13.495l84.818-76.229c.051-.046.101-.092.151-.139 8.592-8.047 13.143-19.417 12.486-31.197zm-423.558 69.386h-68.38v-95.637h68.38zm20-85.152h31.566v74.669h-31.566z"/><path d="m281.69 319.979c-2.346-3.423-6.577-5.131-10.634-4.159-3.901.935-6.928 4.177-7.556 8.149-.668 4.224 1.521 8.533 5.335 10.469 3.654 1.855 8.216 1.273 11.25-1.499 3.634-3.32 4.295-8.847 1.605-12.96z"/><path d="m253.368 261.822c32.637 0 59.189-26.553 59.189-59.19v-91.169c0-32.637-26.553-59.189-59.19-59.189s-59.189 26.553-59.189 59.189v91.169c0 32.638 26.552 59.19 59.19 59.19zm39.19-59.19c0 21.609-17.581 39.19-39.19 39.19s-39.189-17.581-39.189-39.19v-35.584h78.38v35.584zm-78.38-91.169c0-21.609 17.581-39.189 39.19-39.189s39.189 17.58 39.189 39.189v35.585h-78.38v-35.585z"/><path d="m407.188 272.996c40.588 0 73.608-33.02 73.608-73.608s-33.021-73.608-73.608-73.608-73.608 33.021-73.608 73.608 33.02 73.608 73.608 73.608zm0-127.217c29.56 0 53.608 24.049 53.608 53.608s-24.049 53.608-53.608 53.608-53.608-24.049-53.608-53.608 24.048-53.608 53.608-53.608z"/></g></g></g></svg>